<svg width="1200" height="800" viewBox="0 0 1200 800" xmlns="http://www.w3.org/2000/svg">
  <defs>
    <linearGradient id="nordicBg" x1="0%" y1="0%" x2="100%" y2="100%">
      <stop offset="0%" stop-color="#e0f2fe" />
      <stop offset="100%" stop-color="#bae6fd" />
    </linearGradient>
  </defs>
  <rect width="1200" height="800" fill="url(#nordicBg)" />
  <rect x="190" y="420" width="820" height="190" rx="30" fill="#f8fafc" stroke="#38bdf8" stroke-width="6" />
  <circle cx="420" cy="515" r="80" fill="#38bdf8" opacity="0.7" />
  <circle cx="780" cy="515" r="80" fill="#0ea5e9" opacity="0.7" />
  <path d="M420 515 Q480 440 540 515 Q480 590 420 515Z" fill="#f0f9ff" />
  <path d="M780 515 Q840 440 900 515 Q840 590 780 515Z" fill="#f0f9ff" />
  <rect x="260" y="360" width="680" height="45" rx="22" fill="#38bdf8" opacity="0.4" />
  <rect x="330" y="305" width="540" height="35" rx="18" fill="#38bdf8" opacity="0.3" />
  <rect x="500" y="240" width="200" height="60" rx="30" fill="#f0f9ff" stroke="#38bdf8" stroke-width="4" />
  <rect x="260" y="460" width="36" height="130" rx="18" fill="#0f172a" opacity="0.3" />
  <rect x="904" y="460" width="36" height="130" rx="18" fill="#0f172a" opacity="0.3" />
  <circle cx="278" cy="610" r="32" fill="#f0f9ff" stroke="#0f172a" stroke-width="3" opacity="0.5" />
  <circle cx="922" cy="610" r="32" fill="#f0f9ff" stroke="#0f172a" stroke-width="3" opacity="0.5" />
  <rect x="470" y="640" width="260" height="40" rx="20" fill="#0f172a" opacity="0.2" />
  <rect x="340" y="190" width="520" height="25" rx="12" fill="#0f172a" opacity="0.15" />
</svg>

