<svg width="1200" height="800" viewBox="0 0 1200 800" xmlns="http://www.w3.org/2000/svg">
  <defs>
    <linearGradient id="fineDiningBg" x1="0%" y1="0%" x2="100%" y2="100%">
      <stop offset="0%" stop-color="#fde7f3" />
      <stop offset="100%" stop-color="#fbcfe8" />
    </linearGradient>
    <linearGradient id="fineDiningTable" x1="0%" y1="0%" x2="0%" y2="100%">
      <stop offset="0%" stop-color="#fef9c3" />
      <stop offset="100%" stop-color="#f59e0b" />
    </linearGradient>
  </defs>
  <rect width="1200" height="800" fill="url(#fineDiningBg)" />
  <g opacity="0.25" stroke="#f472b6" stroke-width="2">
    <circle cx="200" cy="200" r="80" fill="none" />
    <circle cx="1000" cy="160" r="100" fill="none" />
    <circle cx="950" cy="620" r="70" fill="none" />
  </g>
  <rect x="200" y="420" width="800" height="160" rx="20" fill="url(#fineDiningTable)" />
  <rect x="260" y="360" width="80" height="60" rx="15" fill="#fef9c3" stroke="#f59e0b" stroke-width="4" />
  <rect x="860" y="360" width="80" height="60" rx="15" fill="#fef9c3" stroke="#f59e0b" stroke-width="4" />
  <circle cx="600" cy="400" r="80" fill="#fde68a" stroke="#f59e0b" stroke-width="6" />
  <rect x="320" y="460" width="40" height="120" fill="#f59e0b" />
  <rect x="540" y="460" width="40" height="120" fill="#f59e0b" />
  <rect x="840" y="460" width="40" height="120" fill="#f59e0b" />
  <circle cx="320" cy="600" r="40" fill="#fef3c7" stroke="#f59e0b" stroke-width="4" />
  <circle cx="880" cy="600" r="40" fill="#fef3c7" stroke="#f59e0b" stroke-width="4" />
  <rect x="560" y="520" width="80" height="200" rx="40" fill="#fef9c3" stroke="#f59e0b" stroke-width="6" />
  <rect x="450" y="260" width="300" height="120" rx="60" fill="#fef9c3" stroke="#f59e0b" stroke-width="6" opacity="0.7" />
  <rect x="500" y="200" width="200" height="80" rx="40" fill="#fef9c3" opacity="0.5" />
</svg>

