<svg width="1200" height="800" viewBox="0 0 1200 800" xmlns="http://www.w3.org/2000/svg">
  <defs>
    <linearGradient id="bgGradient" x1="0%" y1="0%" x2="0%" y2="100%">
      <stop offset="0%" stop-color="#e0f2ff" />
      <stop offset="100%" stop-color="#c2e9fb" />
    </linearGradient>
    <linearGradient id="trainGradient" x1="0%" y1="0%" x2="100%" y2="0%">
      <stop offset="0%" stop-color="#0ea5e9" />
      <stop offset="100%" stop-color="#0284c7" />
    </linearGradient>
  </defs>
  <rect width="1200" height="800" fill="url(#bgGradient)" />
  <rect y="520" width="1200" height="160" fill="#94a3b8" opacity="0.35" />
  <rect y="560" width="1200" height="40" fill="#475569" opacity="0.35" />
  <g transform="translate(150 360)">
    <rect width="900" height="180" rx="30" fill="url(#trainGradient)" />
    <rect x="60" y="30" width="240" height="90" rx="15" fill="#f8fafc" opacity="0.9" />
    <rect x="360" y="30" width="180" height="90" rx="15" fill="#f8fafc" opacity="0.9" />
    <rect x="600" y="30" width="180" height="90" rx="15" fill="#f8fafc" opacity="0.9" />
    <circle cx="150" cy="210" r="45" fill="#0f172a" />
    <circle cx="750" cy="210" r="45" fill="#0f172a" />
    <circle cx="150" cy="210" r="25" fill="#f8fafc" opacity="0.85" />
    <circle cx="750" cy="210" r="25" fill="#f8fafc" opacity="0.85" />
    <rect x="20" y="140" width="860" height="15" rx="7" fill="#0f172a" opacity="0.25" />
  </g>
  <g fill="#bae6fd">
    <circle cx="150" cy="120" r="55" />
    <circle cx="190" cy="120" r="45" />
    <circle cx="950" cy="160" r="65" />
    <circle cx="1000" cy="150" r="55" />
  </g>
  <rect x="150" y="640" width="900" height="30" rx="15" fill="#0f172a" opacity="0.2" />
</svg>

